<svg width="797" height="798" viewBox="0 0 797 798" fill="none" xmlns="http://www.w3.org/2000/svg">
<path d="M561.388 65.3722L593.361 65.3985L610.388 65.4132H610.412C659.401 65.4173 697.13 78.0922 723.709 103.322L724.966 104.533L725.118 104.683L725.27 104.835C751.304 130.967 764.388 169.116 764.388 219.413V547.182C764.388 602.53 749.729 649.89 715.966 684.316L715.747 684.539L715.525 684.757H715.524C681.097 718.522 633.738 733.182 578.388 733.182H252.578C197.228 733.182 149.868 718.522 115.441 684.757H115.44L115.219 684.54L115.001 684.317C81.2363 649.891 66.5779 602.531 66.5779 547.182V219.413L66.5876 217.064C66.9902 167.926 80.0691 130.559 105.696 104.835L105.846 104.683L106 104.533H106.001C132.642 78.4979 170.788 65.4174 220.554 65.4132H220.578L237.605 65.3985L269.579 65.3722V65.0694L365.436 65.211H365.51L561.388 65.0489V65.3722Z" fill="url(#paint0_linear_5_59)"/>
<path d="M561.388 65.3722L593.361 65.3985L610.388 65.4132H610.412C659.401 65.4173 697.13 78.0922 723.709 103.322L724.966 104.533L725.118 104.683L725.27 104.835C751.304 130.967 764.388 169.116 764.388 219.413V547.182C764.388 602.53 749.729 649.89 715.966 684.316L715.747 684.539L715.525 684.757H715.524C681.097 718.522 633.738 733.182 578.388 733.182H252.578C197.228 733.182 149.868 718.522 115.441 684.757H115.44L115.219 684.54L115.001 684.317C81.2363 649.891 66.5779 602.531 66.5779 547.182V219.413L66.5876 217.064C66.9902 167.926 80.0691 130.559 105.696 104.835L105.846 104.683L106 104.533H106.001C132.642 78.4979 170.788 65.4174 220.554 65.4132H220.578L237.605 65.3985L269.579 65.3722V65.0694L365.436 65.211H365.51L561.388 65.0489V65.3722Z" fill="#A991C2" fill-opacity="0.9" style="mix-blend-mode:multiply"/>
<path d="M561.388 65.3722L593.361 65.3985L610.388 65.4132H610.412C659.401 65.4173 697.13 78.0922 723.709 103.322L724.966 104.533L725.118 104.683L725.27 104.835C751.304 130.967 764.388 169.116 764.388 219.413V547.182C764.388 602.53 749.729 649.89 715.966 684.316L715.747 684.539L715.525 684.757H715.524C681.097 718.522 633.738 733.182 578.388 733.182H252.578C197.228 733.182 149.868 718.522 115.441 684.757H115.44L115.219 684.54L115.001 684.317C81.2363 649.891 66.5779 602.531 66.5779 547.182V219.413L66.5876 217.064C66.9902 167.926 80.0691 130.559 105.696 104.835L105.846 104.683L106 104.533H106.001C132.642 78.4979 170.788 65.4174 220.554 65.4132H220.578L237.605 65.3985L269.579 65.3722V65.0694L365.436 65.211H365.51L561.388 65.0489V65.3722Z" stroke="#312C29" stroke-width="64"/>
<path d="M631.388 694.681C631.388 711.911 624.65 746.409 602.633 768.426C580.615 790.444 552.786 797.181 528.888 797.181H218.578C157.755 797.181 101.24 780.997 59.0345 739.604L58.5909 739.168L58.1558 738.725C16.762 696.519 0.577881 640.004 0.577881 579.181V250.411C0.577881 189.38 16.6162 132.403 58.593 90.4266L58.8127 90.207L59.0345 89.9894C101.24 48.5956 157.755 32.4115 218.578 32.4115H528.888C552.786 32.4115 580.615 39.1492 602.633 61.1665C624.65 83.1839 631.388 111.014 631.388 134.911V694.681Z" fill="#312C29"/>
<path d="M101.578 187.843V103.913V97.0755L610.388 97.4129C654.58 97.4129 683.66 108.911 702.6 127.42C720.819 145.707 732.388 174.559 732.388 219.413V451.183C732.388 495.289 720.935 524.342 702.489 543.284C683.547 561.73 654.494 573.183 610.388 573.183H101.578V566.683V475.053V187.843Z" fill="url(#paint1_linear_5_59)"/>
<mask id="mask0_5_59" style="mask-type:alpha" maskUnits="userSpaceOnUse" x="101" y="97" width="632" height="477">
<path d="M101.579 187.843V103.913V97.0755L610.389 97.4129C654.581 97.4129 683.661 108.911 702.601 127.42C720.819 145.707 732.389 174.559 732.389 219.413V451.183C732.389 495.289 720.936 524.342 702.49 543.284C683.547 561.73 654.495 573.183 610.389 573.183H101.579V566.683V475.053V187.843Z" fill="url(#paint2_linear_5_59)"/>
</mask>
<g mask="url(#mask0_5_59)">
<g style="mix-blend-mode:overlay" opacity="0.4">
<rect x="39.9312" y="803.755" width="148.991" height="1195" transform="rotate(-135 39.9312 803.755)" fill="#FFE8FF"/>
</g>
<g style="mix-blend-mode:overlay" opacity="0.4">
<rect x="205.662" y="843.216" width="86.8759" height="1195" transform="rotate(-135 205.662 843.216)" fill="#FFE8FF"/>
</g>
</g>
<path d="M631.388 232.681C631.388 249.911 624.65 284.409 602.633 306.426C580.615 328.444 552.786 335.181 528.888 335.181H218.578C24.7694 335.181 -52.4633 208.483 58.5932 97.4266L58.8128 97.207L59.0346 96.9894C101.24 55.5956 157.755 39.4115 218.578 39.4115H528.888C552.786 39.4115 580.615 46.1492 602.633 68.1665C624.65 90.1839 631.388 118.014 631.388 141.911V232.681Z" fill="#312C29"/>
<path d="M528.887 33.4115C546.713 33.4115 565.077 38.2924 579.33 52.1283L580.006 52.7943L580.671 53.4701C594.507 67.7229 599.387 86.0855 599.387 103.911V187.841C599.387 205.95 594.351 224.614 580.006 238.959C565.66 253.305 546.996 258.341 528.887 258.341H292.498C291.028 258.341 290.07 258.47 289.517 258.579C289.331 259.342 289.078 260.837 289.078 263.301V399.591C289.078 401.857 289.293 403.395 289.507 404.363C290.207 404.463 291.186 404.551 292.498 404.551H528.887C546.714 404.551 565.077 409.433 579.33 423.269L580.006 423.934L580.671 424.61C594.507 438.862 599.387 457.225 599.387 475.051V566.682C599.387 584.791 594.351 603.454 580.006 617.799C565.66 632.145 546.996 637.182 528.887 637.182H218.578C163.27 637.182 115.891 622.544 81.4412 588.757L81.2195 588.54L81.0017 588.318C47.2151 553.868 32.578 506.49 32.5779 451.182V219.411C32.5779 163.742 47.1421 116.132 81.2205 82.054L81.3298 81.9447L81.4412 81.8353C115.891 48.0484 163.27 33.4115 218.578 33.4115H528.887Z" fill="#F4E8D2"/>
<path d="M528.887 33.4115C546.713 33.4115 565.077 38.2924 579.33 52.1283L580.006 52.7943L580.671 53.4701C594.507 67.7229 599.387 86.0855 599.387 103.911V187.841C599.387 205.95 594.351 224.614 580.006 238.959C565.66 253.305 546.996 258.341 528.887 258.341H292.498C291.028 258.341 290.07 258.47 289.517 258.579C289.331 259.342 289.078 260.837 289.078 263.301V399.591C289.078 401.857 289.293 403.395 289.507 404.363C290.207 404.463 291.186 404.551 292.498 404.551H528.887C546.714 404.551 565.077 409.433 579.33 423.269L580.006 423.934L580.671 424.61C594.507 438.862 599.387 457.225 599.387 475.051V566.682C599.387 584.791 594.351 603.454 580.006 617.799C565.66 632.145 546.996 637.182 528.887 637.182H218.578C163.27 637.182 115.891 622.544 81.4412 588.757L81.2195 588.54L81.0017 588.318C47.2151 553.868 32.578 506.49 32.5779 451.182V219.411C32.5779 163.742 47.1421 116.132 81.2205 82.054L81.3298 81.9447L81.4412 81.8353C115.891 48.0484 163.27 33.4115 218.578 33.4115H528.887Z" fill="url(#paint3_radial_5_59)"/>
<path d="M528.887 33.4115C546.713 33.4115 565.077 38.2924 579.33 52.1283L580.006 52.7943L580.671 53.4701C594.507 67.7229 599.387 86.0855 599.387 103.911V187.841C599.387 205.95 594.351 224.614 580.006 238.959C565.66 253.305 546.996 258.341 528.887 258.341H292.498C291.028 258.341 290.07 258.47 289.517 258.579C289.331 259.342 289.078 260.837 289.078 263.301V399.591C289.078 401.857 289.293 403.395 289.507 404.363C290.207 404.463 291.186 404.551 292.498 404.551H528.887C546.714 404.551 565.077 409.433 579.33 423.269L580.006 423.934L580.671 424.61C594.507 438.862 599.387 457.225 599.387 475.051V566.682C599.387 584.791 594.351 603.454 580.006 617.799C565.66 632.145 546.996 637.182 528.887 637.182H218.578C163.27 637.182 115.891 622.544 81.4412 588.757L81.2195 588.54L81.0017 588.318C47.2151 553.868 32.578 506.49 32.5779 451.182V219.411C32.5779 163.742 47.1421 116.132 81.2205 82.054L81.3298 81.9447L81.4412 81.8353C115.891 48.0484 163.27 33.4115 218.578 33.4115H528.887Z" stroke="#312C29" stroke-width="64"/>
<defs>
<linearGradient id="paint0_linear_5_59" x1="365.483" y1="33.0226" x2="365.483" y2="765.181" gradientUnits="userSpaceOnUse">
<stop stop-color="#FFA6A6"/>
<stop offset="1" stop-color="#BE83FA"/>
</linearGradient>
<linearGradient id="paint1_linear_5_59" x1="416.983" y1="97.0755" x2="416.983" y2="573.183" gradientUnits="userSpaceOnUse">
<stop stop-color="#FFA6A6"/>
<stop offset="1" stop-color="#BE83FA"/>
</linearGradient>
<linearGradient id="paint2_linear_5_59" x1="416.984" y1="37.9778" x2="410.271" y2="627.962" gradientUnits="userSpaceOnUse">
<stop stop-color="#E8D7C1"/>
<stop offset="1" stop-color="#D9BBB0"/>
</linearGradient>
<radialGradient id="paint3_radial_5_59" cx="0" cy="0" r="1" gradientUnits="userSpaceOnUse" gradientTransform="translate(614.198 65.4114) rotate(90.1238) scale(539.771 1264)">
<stop offset="0.65" stop-color="#E3D2BA" stop-opacity="0"/>
<stop offset="0.651" stop-color="#E3D2BA"/>
</radialGradient>
</defs>
</svg>
