<svg width="3879" height="1000" viewBox="0 0 3879 1000" fill="none" xmlns="http://www.w3.org/2000/svg">
<path d="M1513.74 552.745C1525.03 552.745 1533.76 556.082 1539.92 562.755C1546.08 568.915 1549.16 577.899 1549.16 589.705V599.715L1549.15 600.814C1548.97 611.894 1546 620.648 1540.24 627.081C1546.19 633.23 1549.16 642.104 1549.16 653.705V663.715L1549.15 664.814C1548.97 676.096 1545.89 684.97 1539.92 691.435C1533.76 697.595 1525.03 700.675 1513.74 700.675H1431.35V552.745H1513.74Z" fill="#312C29"/>
<path d="M1513.74 362.555C1525.03 362.555 1533.76 365.891 1539.92 372.564C1546.08 378.724 1549.16 387.708 1549.16 399.515V409.524L1549.15 410.624C1548.97 421.703 1546 430.458 1540.24 436.892C1546.19 443.041 1549.16 451.914 1549.16 463.515V473.524L1549.15 474.624C1548.97 485.906 1545.89 494.78 1539.92 501.245C1533.76 507.405 1525.03 510.484 1513.74 510.484H1431.35V362.555H1513.74Z" fill="#312C29"/>
<path fill-rule="evenodd" clip-rule="evenodd" d="M804.656 165.345C831.573 165.345 857.606 175.05 877.648 195.642C889.631 207.31 897.925 221.007 902.763 235.729C907.411 221.216 915.406 207.494 927.261 195.64L928.212 194.701C948.264 175.136 973.872 165.345 1001.01 165.345H1114.97C1141.88 165.345 1167.91 175.047 1187.95 195.632C1190.57 198.188 1193.02 200.842 1195.3 203.582C1197.79 200.327 1200.55 197.157 1203.61 194.1L1204.64 193.079C1226.49 171.873 1253.83 165.345 1277.35 165.345H1587.66C1648.62 165.345 1705.3 181.885 1747.08 224.337C1789.2 266.588 1805.66 323.538 1805.66 384.885C1805.66 395.922 1805.17 406.81 1804.14 417.503C1805.17 427.797 1805.66 438.275 1805.66 448.885C1805.66 477.751 1802.29 505.593 1794.73 531.614C1802.29 557.636 1805.66 585.479 1805.66 614.345C1805.66 624.952 1805.17 635.427 1804.13 645.719C1805.17 656.415 1805.66 667.305 1805.66 678.345C1805.66 739.167 1789.48 795.682 1748.08 837.888L1747.87 838.11L1747.65 838.33C1705.67 880.307 1648.69 896.345 1587.66 896.345H1277.35C1253.45 896.345 1225.62 889.607 1203.61 867.59C1189.34 853.321 1181.49 836.612 1177.73 820.113C1172.59 827.112 1166.91 833.819 1160.66 840.198L1160.44 840.42L1160.22 840.64C1118.24 882.616 1061.27 898.655 1000.24 898.655H805.426C744.603 898.655 688.088 882.471 645.883 841.077L645.438 840.642L645.004 840.198C638.906 833.981 633.355 827.452 628.322 820.646C624.73 837.718 616.836 855.118 602.055 869.899C580.037 891.917 552.208 898.655 528.31 898.655H218C157.178 898.655 100.662 882.471 58.457 841.077L58.0127 840.642L57.5781 840.198C16.1843 797.993 0 741.477 0 680.654V384.885C0 323.853 16.0388 266.877 58.0156 224.9L58.2344 224.681L58.457 224.463C100.663 183.069 157.177 166.885 218 166.885H528.31C551.834 166.885 579.169 173.414 601.019 194.619L602.055 195.64L603.076 196.676C605.38 199.05 607.51 201.49 609.478 203.981C611.775 201.114 614.263 198.328 616.951 195.64L617.901 194.701C637.954 175.136 663.563 165.345 690.696 165.345H804.656ZM218 294.885L215.675 294.895C167.015 295.297 129.546 308.383 103.27 334.154C77.109 360.315 64.0195 398.521 64 448.772V616.654C64 666.447 77.0897 704.691 103.27 731.385C129.546 757.156 167.015 770.243 215.675 770.646L218 770.655H528.31L529.457 770.645C541.221 770.442 550.335 767.109 556.8 760.645C563.473 753.971 566.81 744.474 566.81 732.154V704.524C566.81 692.205 563.473 682.708 556.8 676.035C550.126 669.362 540.63 666.024 528.31 666.024H291.92C280.627 666.024 271.9 662.945 265.74 656.785C259.58 650.112 256.5 640.871 256.5 629.064V428.774C256.5 417.337 259.391 408.549 265.172 402.41L265.74 401.825C271.9 395.152 280.627 391.814 291.92 391.814H528.31C540.63 391.814 550.126 388.478 556.8 381.805C563.473 375.131 566.81 365.634 566.81 353.314V333.379C566.809 321.062 563.472 311.567 556.8 304.895C550.335 298.43 541.221 295.097 529.457 294.895L528.31 294.885H218ZM690.696 293.345L689.643 293.356C678.811 293.589 669.665 297.435 662.206 304.895C655.019 312.081 651.426 321.321 651.426 332.614V616.654C651.426 666.448 664.516 704.691 690.696 731.385C716.973 757.156 754.441 770.243 803.101 770.646L805.426 770.655H1000.24L1002.58 770.646C1051.73 770.243 1089.19 757.156 1114.97 731.385C1140.74 705.109 1153.82 667.64 1154.23 618.98L1154.24 616.654V332.614C1154.24 321.321 1150.39 312.081 1142.69 304.895C1135.5 297.195 1126.26 293.345 1114.97 293.345H1001.01L999.952 293.356C989.121 293.59 979.975 297.435 972.516 304.895C965.329 312.081 961.735 321.321 961.735 332.614V629.064C961.735 640.871 958.656 650.112 952.496 656.785C946.336 662.945 937.609 666.024 926.315 666.024H879.346C868.053 666.024 859.326 662.945 853.166 656.785C847.006 650.112 843.926 640.871 843.926 629.064V332.614C843.926 321.321 840.076 312.081 832.376 304.895C825.414 297.435 816.525 293.59 805.709 293.356L804.656 293.345H690.696ZM1277.35 293.345C1265.03 293.345 1255.53 296.681 1248.86 303.354C1242.19 310.028 1238.85 319.525 1238.85 331.845V729.845C1238.85 742.165 1242.19 751.662 1248.86 758.335C1255.53 765.008 1265.03 768.345 1277.35 768.345H1587.66L1590.01 768.335C1638.38 767.939 1675.43 755.258 1701.16 730.292L1702.39 729.075C1722.8 708.267 1735.25 680.441 1739.75 645.597C1735.72 612.786 1725.32 585.459 1708.55 563.615C1715.93 554.009 1722.07 543.342 1726.98 531.615C1722.07 519.888 1715.93 509.221 1708.55 499.615C1725.33 477.768 1735.73 450.434 1739.75 417.616C1735.2 382.326 1722.49 354.249 1701.62 333.385C1675.85 307.109 1638.64 293.765 1589.99 293.354L1587.66 293.345H1277.35ZM587.426 503.037C568.463 515.619 547.163 519.814 528.31 519.814H320.5V538.024H528.31C547.163 538.024 568.463 542.22 587.426 554.801V503.037Z" fill="#312C29"/>
<path d="M1513.74 488.745C1525.03 488.745 1533.76 492.082 1539.92 498.755C1546.08 504.915 1549.16 513.899 1549.16 525.705V535.715L1549.15 536.814C1548.97 548.096 1545.89 556.97 1539.92 563.435C1533.76 569.595 1525.03 572.675 1513.74 572.675H1431.35V488.745H1513.74Z" fill="#312C29"/>
<path d="M1513.74 298.555C1525.03 298.555 1533.76 301.891 1539.92 308.564C1546.08 314.724 1549.16 323.708 1549.16 335.515V345.524L1549.15 346.624C1548.97 357.906 1545.89 366.78 1539.92 373.245C1533.76 379.405 1525.03 382.484 1513.74 382.484H1431.35V298.555H1513.74Z" fill="#312C29"/>
<path fill-rule="evenodd" clip-rule="evenodd" d="M804.656 101.345C831.573 101.345 857.606 111.05 877.648 131.642C889.631 143.31 897.925 157.007 902.763 171.729C907.411 157.216 915.406 143.494 927.261 131.64L928.212 130.701C948.264 111.136 973.872 101.345 1001.01 101.345H1114.97C1141.88 101.345 1167.91 111.047 1187.95 131.632C1190.57 134.188 1193.02 136.842 1195.3 139.582C1197.79 136.327 1200.55 133.157 1203.61 130.1L1204.64 129.079C1226.49 107.873 1253.83 101.345 1277.35 101.345H1587.66C1648.62 101.345 1705.3 117.885 1747.08 160.337C1789.2 202.588 1805.66 259.538 1805.66 320.885C1805.66 361.967 1798.83 400.977 1782.82 435.614C1798.83 470.252 1805.66 509.262 1805.66 550.345C1805.66 611.167 1789.48 667.682 1748.08 709.888L1747.87 710.11L1747.65 710.33C1705.67 752.307 1648.69 768.345 1587.66 768.345H1277.35C1253.45 768.345 1225.62 761.607 1203.61 739.59C1189.34 725.321 1181.49 708.612 1177.73 692.113C1172.59 699.112 1166.91 705.819 1160.66 712.198L1160.44 712.42L1160.22 712.64C1118.24 754.616 1061.27 770.655 1000.24 770.655H805.426C744.603 770.655 688.088 754.471 645.883 713.077L645.438 712.642L645.004 712.198C638.906 705.981 633.355 699.452 628.322 692.646C624.73 709.718 616.836 727.118 602.055 741.899C580.037 763.917 552.208 770.655 528.31 770.655H218C157.178 770.655 100.662 754.471 58.457 713.077L58.0127 712.642L57.5781 712.198C16.1843 669.993 0 613.477 0 552.654V320.885C0 259.853 16.0388 202.877 58.0156 160.9L58.2344 160.681L58.457 160.463C100.663 119.069 157.177 102.885 218 102.885H528.31C551.834 102.885 579.169 109.414 601.019 130.619L602.055 131.64L603.076 132.676C605.38 135.05 607.51 137.49 609.478 139.981C611.775 137.114 614.263 134.328 616.951 131.64L617.901 130.701C637.954 111.136 663.563 101.345 690.696 101.345H804.656ZM218 166.885L215.675 166.895C167.015 167.297 129.546 180.383 103.27 206.154C77.0895 232.334 64 270.578 64 320.885V552.654C64 602.447 77.0897 640.691 103.27 667.385C129.546 693.156 167.015 706.243 215.675 706.646L218 706.655H528.31L529.457 706.645C541.221 706.442 550.335 703.109 556.8 696.645C563.473 689.971 566.81 680.474 566.81 668.154V576.524C566.81 564.205 563.473 554.708 556.8 548.035C550.126 541.362 540.63 538.024 528.31 538.024H291.92C280.627 538.024 271.9 534.945 265.74 528.785C259.58 522.112 256.5 512.871 256.5 501.064V364.774C256.5 353.337 259.391 344.549 265.172 338.41L265.74 337.825C271.9 331.152 280.627 327.814 291.92 327.814H528.31C540.63 327.814 550.126 324.478 556.8 317.805C563.473 311.131 566.81 301.634 566.81 289.314V205.385C566.81 193.065 563.473 183.568 556.8 176.895C550.335 170.43 541.221 167.097 529.457 166.895L528.31 166.885H218ZM690.696 165.345L689.643 165.356C678.811 165.589 669.665 169.435 662.206 176.895C655.019 184.081 651.426 193.321 651.426 204.614V552.654C651.426 602.448 664.516 640.691 690.696 667.385C716.973 693.156 754.441 706.243 803.101 706.646L805.426 706.655H1000.24L1002.58 706.646C1051.73 706.243 1089.19 693.156 1114.97 667.385C1140.74 641.109 1153.82 603.64 1154.23 554.98L1154.24 552.654V204.614C1154.24 193.321 1150.39 184.081 1142.69 176.895C1135.5 169.195 1126.26 165.345 1114.97 165.345H1001.01L999.952 165.356C989.121 165.59 979.975 169.435 972.516 176.895C965.329 184.081 961.735 193.321 961.735 204.614V501.064C961.735 512.871 958.656 522.112 952.496 528.785C946.336 534.945 937.609 538.024 926.315 538.024H879.346C868.053 538.024 859.326 534.945 853.166 528.785C847.006 522.112 843.926 512.871 843.926 501.064V204.614C843.926 193.321 840.076 184.081 832.376 176.895C825.414 169.435 816.525 165.59 805.709 165.356L804.656 165.345H690.696ZM1277.35 165.345C1265.03 165.345 1255.53 168.681 1248.86 175.354C1242.19 182.028 1238.85 191.525 1238.85 203.845V665.845C1238.85 678.165 1242.19 687.662 1248.86 694.335C1255.53 701.008 1265.03 704.345 1277.35 704.345H1587.66L1590.01 704.335C1638.38 703.939 1675.43 691.258 1701.16 666.292L1702.39 665.075C1728.16 638.799 1741.25 601.33 1741.65 552.67L1741.66 550.345C1741.66 502.605 1730.62 464.362 1708.55 435.615C1730.28 407.318 1741.31 369.817 1741.65 323.115L1741.66 320.885C1741.66 270.578 1728.32 232.078 1701.62 205.385C1675.85 179.109 1638.64 165.765 1589.99 165.354L1587.66 165.345H1277.35ZM587.426 375.037C568.463 387.619 547.163 391.814 528.31 391.814H320.5V474.024H528.31C547.163 474.024 568.463 478.22 587.426 490.801V375.037Z" fill="#312C29"/>
<path d="M566.81 288.97C566.81 301.29 563.473 310.787 556.8 317.46C550.127 324.133 540.63 327.47 528.31 327.47H291.92C280.627 327.47 271.9 330.807 265.74 337.48C259.58 343.64 256.5 352.623 256.5 364.43V500.72C256.5 512.527 259.58 521.767 265.74 528.44C271.9 534.6 280.627 537.68 291.92 537.68H528.31C540.63 537.68 550.127 541.017 556.8 547.69C563.473 554.363 566.81 563.86 566.81 576.18V667.81C566.81 680.13 563.473 689.627 556.8 696.3C550.127 702.973 540.63 706.31 528.31 706.31H218C168.207 706.31 129.963 693.22 103.27 667.04C77.09 640.347 64 602.103 64 552.31V320.54C64 270.233 77.09 231.99 103.27 205.81C129.963 179.63 168.207 166.54 218 166.54H528.31C540.63 166.54 550.127 169.877 556.8 176.55C563.473 183.223 566.81 192.72 566.81 205.04V288.97Z" fill="#F4E8D2"/>
<path d="M566.81 288.97C566.81 301.29 563.473 310.787 556.8 317.46C550.127 324.133 540.63 327.47 528.31 327.47H291.92C280.627 327.47 271.9 330.807 265.74 337.48C259.58 343.64 256.5 352.623 256.5 364.43V500.72C256.5 512.527 259.58 521.767 265.74 528.44C271.9 534.6 280.627 537.68 291.92 537.68H528.31C540.63 537.68 550.127 541.017 556.8 547.69C563.473 554.363 566.81 563.86 566.81 576.18V667.81C566.81 680.13 563.473 689.627 556.8 696.3C550.127 702.973 540.63 706.31 528.31 706.31H218C168.207 706.31 129.963 693.22 103.27 667.04C77.09 640.347 64 602.103 64 552.31V320.54C64 270.233 77.09 231.99 103.27 205.81C129.963 179.63 168.207 166.54 218 166.54H528.31C540.63 166.54 550.127 169.877 556.8 176.55C563.473 183.223 566.81 192.72 566.81 205.04V288.97Z" fill="url(#paint0_radial_269_1461)"/>
<path d="M1114.97 165C1126.26 165 1135.5 168.85 1142.69 176.55C1150.39 183.737 1154.24 192.977 1154.24 204.27V552.31C1154.24 602.103 1141.15 640.347 1114.97 667.04C1088.79 693.22 1050.54 706.31 1000.24 706.31H805.426C755.632 706.31 717.389 693.22 690.696 667.04C664.516 640.347 651.426 602.103 651.426 552.31V204.27C651.426 192.977 655.019 183.737 662.206 176.55C669.906 168.85 679.402 165 690.696 165H804.656C815.949 165 825.189 168.85 832.376 176.55C840.076 183.737 843.926 192.977 843.926 204.27V500.72C843.926 512.527 847.006 521.767 853.166 528.44C859.326 534.6 868.052 537.68 879.346 537.68H926.316C937.609 537.68 946.336 534.6 952.496 528.44C958.656 521.767 961.736 512.527 961.736 500.72V204.27C961.736 192.977 965.329 183.737 972.516 176.55C980.216 168.85 989.712 165 1001.01 165H1114.97Z" fill="#F4E8D2"/>
<path d="M1114.97 165C1126.26 165 1135.5 168.85 1142.69 176.55C1150.39 183.737 1154.24 192.977 1154.24 204.27V552.31C1154.24 602.103 1141.15 640.347 1114.97 667.04C1088.79 693.22 1050.54 706.31 1000.24 706.31H805.426C755.632 706.31 717.389 693.22 690.696 667.04C664.516 640.347 651.426 602.103 651.426 552.31V204.27C651.426 192.977 655.019 183.737 662.206 176.55C669.906 168.85 679.402 165 690.696 165H804.656C815.949 165 825.189 168.85 832.376 176.55C840.076 183.737 843.926 192.977 843.926 204.27V500.72C843.926 512.527 847.006 521.767 853.166 528.44C859.326 534.6 868.052 537.68 879.346 537.68H926.316C937.609 537.68 946.336 534.6 952.496 528.44C958.656 521.767 961.736 512.527 961.736 500.72V204.27C961.736 192.977 965.329 183.737 972.516 176.55C980.216 168.85 989.712 165 1001.01 165H1114.97Z" fill="url(#paint1_radial_269_1461)"/>
<path d="M1741.66 320.54C1741.66 368.28 1730.62 406.523 1708.55 435.27C1730.62 464.017 1741.66 502.26 1741.66 550C1741.66 599.793 1728.57 638.037 1702.39 664.73C1676.21 690.91 1637.97 704 1587.66 704H1277.35C1265.03 704 1255.53 700.663 1248.86 693.99C1242.19 687.317 1238.85 677.82 1238.85 665.5V203.5C1238.85 191.18 1242.19 181.683 1248.86 175.01C1255.53 168.337 1265.03 165 1277.35 165H1587.66C1637.45 165 1675.44 178.347 1701.62 205.04C1728.31 231.733 1741.66 270.233 1741.66 320.54ZM1549.16 335.17C1549.16 323.363 1546.08 314.38 1539.92 308.22C1533.76 301.547 1525.03 298.21 1513.74 298.21H1431.35V382.14H1513.74C1525.03 382.14 1533.76 379.06 1539.92 372.9C1546.08 366.227 1549.16 356.987 1549.16 345.18V335.17ZM1549.16 525.36C1549.16 513.553 1546.08 504.57 1539.92 498.41C1533.76 491.737 1525.03 488.4 1513.74 488.4H1431.35V572.33H1513.74C1525.03 572.33 1533.76 569.25 1539.92 563.09C1546.08 556.417 1549.16 547.177 1549.16 535.37V525.36Z" fill="#F4E8D2"/>
<path d="M1741.66 320.54C1741.66 368.28 1730.62 406.523 1708.55 435.27C1730.62 464.017 1741.66 502.26 1741.66 550C1741.66 599.793 1728.57 638.037 1702.39 664.73C1676.21 690.91 1637.97 704 1587.66 704H1277.35C1265.03 704 1255.53 700.663 1248.86 693.99C1242.19 687.317 1238.85 677.82 1238.85 665.5V203.5C1238.85 191.18 1242.19 181.683 1248.86 175.01C1255.53 168.337 1265.03 165 1277.35 165H1587.66C1637.45 165 1675.44 178.347 1701.62 205.04C1728.31 231.733 1741.66 270.233 1741.66 320.54ZM1549.16 335.17C1549.16 323.363 1546.08 314.38 1539.92 308.22C1533.76 301.547 1525.03 298.21 1513.74 298.21H1431.35V382.14H1513.74C1525.03 382.14 1533.76 379.06 1539.92 372.9C1546.08 366.227 1549.16 356.987 1549.16 345.18V335.17ZM1549.16 525.36C1549.16 513.553 1546.08 504.57 1539.92 498.41C1533.76 491.737 1525.03 488.4 1513.74 488.4H1431.35V572.33H1513.74C1525.03 572.33 1533.76 569.25 1539.92 563.09C1546.08 556.417 1549.16 547.177 1549.16 535.37V525.36Z" fill="url(#paint2_radial_269_1461)"/>
<path d="M2163.44 63.9651C2282.94 31.9462 2405.76 102.86 2437.78 222.357L2510.51 493.782C2515.86 513.761 2518.34 533.884 2518.18 553.688V645.064C2518.19 646.373 2518.19 647.681 2518.18 648.986V648.987C2517.25 747.048 2451.53 836.484 2352.12 863.12L2080.69 935.849C1961.2 967.868 1838.37 896.953 1806.35 777.457L1733.62 506.032C1728.41 486.561 1725.92 466.953 1725.94 447.636V352.64C1726.08 253.866 1791.99 163.493 1892.01 136.693L2163.44 63.9651Z" fill="#855FBA" stroke="#312C29" stroke-width="64"/>
<rect x="1753.75" y="239.643" width="601" height="601" rx="160" transform="rotate(-15 1753.75 239.643)" fill="url(#paint3_linear_269_1461)" stroke="url(#paint4_linear_269_1461)" stroke-width="64"/>
<rect x="1957.94" y="496.131" width="240" height="240" rx="64" transform="rotate(-60 1957.94 496.131)" fill="url(#paint5_linear_269_1461)"/>
<mask id="mask0_269_1461" style="mask-type:alpha" maskUnits="userSpaceOnUse" x="1757" y="88" width="729" height="729">
<path d="M2013.37 528.131C1982.76 510.458 1972.27 471.316 1989.94 440.705L2045.94 343.711C2063.62 313.1 2102.76 302.612 2133.37 320.285L2230.36 376.285C2260.97 393.958 2271.46 433.1 2253.79 463.711L2197.79 560.705C2180.12 591.316 2140.97 601.804 2110.36 584.131L2013.37 528.131Z" fill="url(#paint6_linear_269_1461)"/>
<path fill-rule="evenodd" clip-rule="evenodd" d="M1900.02 167.318L2171.44 94.5899C2273.87 67.1451 2379.15 127.929 2406.59 230.354L2479.32 501.78C2506.77 604.205 2445.98 709.486 2343.56 736.931L2072.13 809.659C1969.71 837.104 1864.42 776.32 1836.98 673.894L1764.25 402.469C1736.81 300.044 1797.59 194.763 1900.02 167.318ZM1916.58 229.137C1848.3 247.434 1807.77 317.621 1826.07 385.905L1898.8 657.33C1917.1 725.613 1987.28 766.136 2055.57 747.839L2326.99 675.111C2395.28 656.815 2435.8 586.628 2417.5 518.344L2344.77 246.919C2326.48 178.635 2256.29 138.113 2188.01 156.409L1916.58 229.137Z" fill="url(#paint7_linear_269_1461)"/>
</mask>
<g mask="url(#mask0_269_1461)">
<g style="mix-blend-mode:overlay" opacity="0.6">
<rect x="2369.93" y="-226" width="164.888" height="1195" transform="rotate(45 2369.93 -226)" fill="#FFE8FF"/>
</g>
<g style="mix-blend-mode:overlay" opacity="0.6">
<rect x="2441.93" y="6" width="86.8759" height="1195" transform="rotate(45 2441.93 6)" fill="#FFE8FF"/>
</g>
</g>
<path d="M3053.42 406.83C3064.71 406.83 3073.44 410.167 3079.6 416.84C3085.76 423 3088.84 431.983 3088.84 443.79V620.21C3088.84 632.016 3085.76 641.256 3079.6 647.93C3073.44 654.09 3064.71 657.17 3053.42 657.17H2971.03V406.83H3053.42Z" fill="#312C29"/>
<path fill-rule="evenodd" clip-rule="evenodd" d="M2655.66 166.5C2679.19 166.5 2706.52 173.029 2728.37 194.234L2729.41 195.255L2730.43 196.292C2732.54 198.473 2734.51 200.711 2736.35 202.992C2738.47 200.348 2740.78 197.763 2743.29 195.255L2744.32 194.234C2766.17 173.029 2793.51 166.5 2817.03 166.5H3127.34C3188.37 166.5 3245.35 182.539 3287.33 224.516C3293.61 230.804 3299.32 237.429 3304.48 244.354C3308.09 227.331 3315.98 209.991 3330.71 195.255L3331.75 194.234C3353.6 173.029 3380.93 166.5 3404.46 166.5H3775.6C3802.51 166.5 3828.54 176.202 3848.58 196.787C3869.16 216.828 3878.87 242.857 3878.87 269.77V401.53C3878.87 425.205 3871.41 447.717 3856.52 466.392C3856.53 467.071 3856.54 467.75 3856.54 468.43V531.57C3856.54 531.715 3856.53 531.859 3856.53 532.004C3856.53 532.146 3856.54 532.288 3856.54 532.43V595.57C3856.54 596.428 3856.52 597.285 3856.5 598.14C3871.66 616.751 3878.87 639.282 3878.87 662.47V794.23C3878.87 821.795 3868.76 847.785 3848.57 867.975C3828 888.55 3801.8 897.5 3775.6 897.5H3404.46C3380.56 897.5 3352.73 890.763 3330.71 868.745C3315.93 853.964 3308.04 836.562 3304.44 819.49C3299.41 826.297 3293.86 832.826 3287.76 839.043L3287.55 839.266L3287.33 839.485C3245.35 881.462 3188.37 897.5 3127.34 897.5H2817.03C2793.13 897.5 2765.3 890.763 2743.29 868.745C2740.78 866.237 2738.47 863.652 2736.35 861.008C2734.22 863.652 2731.92 866.237 2729.41 868.745C2707.39 890.763 2679.56 897.5 2655.66 897.5H2540.16C2516.26 897.5 2488.43 890.763 2466.42 868.745C2444.4 846.728 2437.66 818.898 2437.66 795V269C2437.66 245.102 2444.4 217.272 2466.42 195.255L2467.45 194.234C2489.3 173.029 2516.64 166.5 2540.16 166.5H2655.66ZM2540.16 294.5C2527.84 294.5 2518.35 297.836 2511.67 304.51C2505 311.182 2501.66 320.677 2501.66 332.994V731C2501.66 743.32 2505 752.817 2511.67 759.49C2518.35 766.164 2527.84 769.5 2540.16 769.5H2655.66C2667.6 769.5 2676.88 766.368 2683.52 760.105L2684.15 759.49C2690.83 752.817 2694.16 743.32 2694.16 731V332.994C2694.16 320.677 2690.82 311.182 2684.15 304.51C2677.48 297.836 2667.98 294.5 2655.66 294.5H2540.16ZM2817.03 294.5C2804.71 294.5 2795.21 297.836 2788.54 304.51C2781.87 311.182 2778.53 320.677 2778.53 332.994V731C2778.53 743.32 2781.87 752.817 2788.54 759.49C2795.21 766.164 2804.71 769.5 2817.03 769.5H3127.34C3176.86 769.5 3214.69 756.816 3240.83 731.447L3242.07 730.23C3268.25 703.537 3281.34 665.293 3281.34 615.5V448.5C3281.34 398.193 3268.25 359.95 3242.07 333.77C3215.89 307.59 3177.65 294.5 3127.34 294.5H2817.03ZM3404.46 294.5C3392.14 294.5 3382.64 297.836 3375.97 304.51C3369.29 311.182 3365.96 320.677 3365.96 332.994V731C3365.96 743.32 3369.29 752.817 3375.97 759.49C3382.64 766.164 3392.14 769.5 3404.46 769.5H3775.6C3786.54 769.5 3795.55 766.128 3802.64 759.383L3803.32 758.72C3810.78 751.26 3814.62 742.115 3814.86 731.283L3814.87 730.23V726.47C3814.87 715.177 3811.02 705.937 3803.32 698.75C3796.13 691.05 3786.89 687.2 3775.6 687.2H3558.46V637.15H3753.27C3764.56 637.15 3773.8 633.299 3780.99 625.6C3781.56 624.991 3782.11 624.37 3782.63 623.741C3780.38 623.381 3778.04 623.2 3775.6 623.2H3558.46V573.15H3753.27C3764.56 573.15 3773.8 569.299 3780.99 561.6C3788.45 553.643 3792.29 544.001 3792.53 532.672L3792.53 532C3792.44 520.386 3788.59 510.776 3780.99 503.17C3773.8 494.957 3764.56 490.85 3753.27 490.85H3558.46V440.8H3775.6C3777.86 440.8 3780.04 440.652 3782.13 440.364C3781.76 439.961 3781.38 439.562 3780.99 439.17C3773.8 430.957 3764.56 426.85 3753.27 426.85H3558.46V376.8H3775.6C3786.54 376.8 3795.55 373.428 3802.64 366.684L3803.32 366.02C3810.78 358.56 3814.62 349.415 3814.86 338.583L3814.87 337.53V333.77C3814.87 322.476 3811.02 313.236 3803.32 306.05C3796.13 298.35 3786.89 294.5 3775.6 294.5H3404.46Z" fill="#312C29"/>
<path d="M3053.42 342.83C3064.71 342.83 3073.44 346.167 3079.6 352.84C3085.76 359 3088.84 367.983 3088.84 379.79V492.21C3088.84 504.016 3085.76 513.256 3079.6 519.93C3073.44 526.09 3064.71 529.17 3053.42 529.17H2971.03V342.83H3053.42Z" fill="#312C29"/>
<path fill-rule="evenodd" clip-rule="evenodd" d="M2655.66 102.5C2679.19 102.5 2706.52 109.029 2728.37 130.234L2729.41 131.255L2730.43 132.292C2732.54 134.473 2734.51 136.711 2736.35 138.992C2738.47 136.348 2740.78 133.763 2743.29 131.255L2744.32 130.234C2766.17 109.029 2793.51 102.5 2817.03 102.5H3127.34C3188.37 102.5 3245.35 118.539 3287.33 160.516C3293.61 166.804 3299.32 173.429 3304.48 180.354C3308.09 163.331 3315.98 145.991 3330.71 131.255L3331.75 130.234C3353.6 109.029 3380.93 102.5 3404.46 102.5H3775.6C3802.51 102.5 3828.54 112.202 3848.58 132.787C3869.16 152.828 3878.87 178.857 3878.87 205.77V273.53C3878.87 301.094 3868.76 327.084 3848.57 347.274C3846.83 349.016 3845.05 350.672 3843.23 352.248C3852.27 368.326 3856.54 386.228 3856.54 404.43V467.57C3856.54 486.157 3852.12 504.143 3843.12 520.276C3844.98 521.925 3846.8 523.659 3848.57 525.477C3869.16 545.519 3878.87 571.552 3878.87 598.47V666.23C3878.87 693.795 3868.76 719.785 3848.57 739.975C3828 760.55 3801.8 769.5 3775.6 769.5H3404.46C3380.56 769.5 3352.73 762.763 3330.71 740.745C3315.93 725.964 3308.04 708.562 3304.44 691.49C3299.41 698.297 3293.86 704.826 3287.76 711.043L3287.55 711.266L3287.33 711.485C3245.35 753.462 3188.37 769.5 3127.34 769.5H2817.03C2793.13 769.5 2765.3 762.763 2743.29 740.745C2740.78 738.237 2738.47 735.652 2736.35 733.008C2734.22 735.652 2731.92 738.237 2729.41 740.745C2707.39 762.763 2679.56 769.5 2655.66 769.5H2540.16C2516.26 769.5 2488.43 762.763 2466.42 740.745C2444.4 718.728 2437.66 690.898 2437.66 667V205C2437.66 181.102 2444.4 153.272 2466.42 131.255L2467.45 130.234C2489.3 109.029 2516.64 102.5 2540.16 102.5H2655.66ZM2540.16 166.5C2527.84 166.5 2518.35 169.836 2511.67 176.51C2505 183.183 2501.66 192.68 2501.66 205V667C2501.66 679.32 2505 688.817 2511.67 695.49C2518.35 702.164 2527.84 705.5 2540.16 705.5H2655.66C2667.6 705.5 2676.88 702.368 2683.52 696.105L2684.15 695.49C2690.83 688.817 2694.16 679.32 2694.16 667V205C2694.16 192.68 2690.83 183.183 2684.15 176.51C2677.48 169.836 2667.98 166.5 2655.66 166.5H2540.16ZM2817.03 166.5C2804.71 166.5 2795.21 169.836 2788.54 176.51C2781.87 183.183 2778.53 192.68 2778.53 205V667C2778.53 679.32 2781.87 688.817 2788.54 695.49C2795.21 702.164 2804.71 705.5 2817.03 705.5H3127.34C3176.86 705.5 3214.69 692.816 3240.83 667.447L3242.07 666.23C3268.25 639.537 3281.34 601.293 3281.34 551.5V320.5C3281.34 270.193 3268.25 231.95 3242.07 205.77C3215.89 179.59 3177.65 166.5 3127.34 166.5H2817.03ZM3404.46 166.5C3392.14 166.5 3382.64 169.836 3375.97 176.51C3369.29 183.183 3365.96 192.68 3365.96 205V667C3365.96 679.32 3369.29 688.817 3375.97 695.49C3382.64 702.164 3392.14 705.5 3404.46 705.5H3775.6C3786.54 705.5 3795.55 702.128 3802.64 695.383L3803.32 694.72C3810.78 687.26 3814.62 678.115 3814.86 667.283L3814.87 666.23V598.47C3814.87 587.177 3811.02 577.937 3803.32 570.75C3796.13 563.05 3786.89 559.2 3775.6 559.2H3558.46V509.15H3753.27C3764.56 509.15 3773.8 505.299 3780.99 497.6C3788.45 489.643 3792.29 480.001 3792.53 468.672L3792.54 467.57V404.43C3792.54 392.623 3788.69 382.87 3780.99 375.17C3773.8 366.957 3764.56 362.85 3753.27 362.85H3558.46V312.8H3775.6C3786.54 312.8 3795.55 309.428 3802.64 302.684L3803.32 302.02C3810.78 294.56 3814.62 285.415 3814.86 274.583L3814.87 273.53V205.77C3814.87 194.476 3811.02 185.236 3803.32 178.05C3796.13 170.35 3786.89 166.5 3775.6 166.5H3404.46Z" fill="#312C29"/>
<path d="M2501.66 205.5C2501.66 193.18 2505 183.683 2511.67 177.01C2518.35 170.337 2527.84 167 2540.16 167H2655.66C2667.98 167 2677.48 170.337 2684.15 177.01C2690.83 183.683 2694.16 193.18 2694.16 205.5V667.5C2694.16 679.82 2690.83 689.317 2684.15 695.99C2677.48 702.663 2667.98 706 2655.66 706H2540.16C2527.84 706 2518.35 702.663 2511.67 695.99C2505 689.317 2501.66 679.82 2501.66 667.5V205.5Z" fill="#F4E8D2"/>
<path d="M2501.66 205.5C2501.66 193.18 2505 183.683 2511.67 177.01C2518.35 170.337 2527.84 167 2540.16 167H2655.66C2667.98 167 2677.48 170.337 2684.15 177.01C2690.83 183.683 2694.16 193.18 2694.16 205.5V667.5C2694.16 679.82 2690.83 689.317 2684.15 695.99C2677.48 702.663 2667.98 706 2655.66 706H2540.16C2527.84 706 2518.35 702.663 2511.67 695.99C2505 689.317 2501.66 679.82 2501.66 667.5V205.5Z" fill="url(#paint8_radial_269_1461)"/>
<path d="M3127.34 167C3177.65 167 3215.89 180.09 3242.07 206.27C3268.25 232.45 3281.34 270.693 3281.34 321V552C3281.34 601.793 3268.25 640.037 3242.07 666.73C3215.89 692.91 3177.65 706 3127.34 706H2817.03C2804.71 706 2795.21 702.663 2788.54 695.99C2781.87 689.317 2778.53 679.82 2778.53 667.5V205.5C2778.53 193.18 2781.87 183.683 2788.54 177.01C2795.21 170.337 2804.71 167 2817.03 167H3127.34ZM3088.84 380.29C3088.84 368.483 3085.76 359.5 3079.6 353.34C3073.44 346.667 3064.71 343.33 3053.42 343.33H2971.03V529.67H3053.42C3064.71 529.67 3073.44 526.59 3079.6 520.43C3085.76 513.757 3088.84 504.517 3088.84 492.71V380.29Z" fill="#F4E8D2"/>
<path d="M3127.34 167C3177.65 167 3215.89 180.09 3242.07 206.27C3268.25 232.45 3281.34 270.693 3281.34 321V552C3281.34 601.793 3268.25 640.037 3242.07 666.73C3215.89 692.91 3177.65 706 3127.34 706H2817.03C2804.71 706 2795.21 702.663 2788.54 695.99C2781.87 689.317 2778.53 679.82 2778.53 667.5V205.5C2778.53 193.18 2781.87 183.683 2788.54 177.01C2795.21 170.337 2804.71 167 2817.03 167H3127.34ZM3088.84 380.29C3088.84 368.483 3085.76 359.5 3079.6 353.34C3073.44 346.667 3064.71 343.33 3053.42 343.33H2971.03V529.67H3053.42C3064.71 529.67 3073.44 526.59 3079.6 520.43C3085.76 513.757 3088.84 504.517 3088.84 492.71V380.29Z" fill="url(#paint9_radial_269_1461)"/>
<path d="M3558.46 313.3V363.35H3753.27C3764.56 363.35 3773.8 367.457 3780.99 375.67C3788.69 383.37 3792.54 393.123 3792.54 404.93V468.07C3792.54 479.877 3788.69 489.887 3780.99 498.1C3773.8 505.8 3764.56 509.65 3753.27 509.65H3558.46V559.7H3775.6C3786.89 559.7 3796.13 563.55 3803.32 571.25C3811.02 578.437 3814.87 587.677 3814.87 598.97V666.73C3814.87 678.023 3811.02 687.52 3803.32 695.22C3796.13 702.407 3786.89 706 3775.6 706H3404.46C3392.14 706 3382.64 702.663 3375.97 695.99C3369.29 689.317 3365.96 679.82 3365.96 667.5V205.5C3365.96 193.18 3369.29 183.683 3375.97 177.01C3382.64 170.337 3392.14 167 3404.46 167H3775.6C3786.89 167 3796.13 170.85 3803.32 178.55C3811.02 185.737 3814.87 194.977 3814.87 206.27V274.03C3814.87 285.323 3811.02 294.82 3803.32 302.52C3796.13 309.707 3786.89 313.3 3775.6 313.3H3558.46Z" fill="#F4E8D2"/>
<path d="M3558.46 313.3V363.35H3753.27C3764.56 363.35 3773.8 367.457 3780.99 375.67C3788.69 383.37 3792.54 393.123 3792.54 404.93V468.07C3792.54 479.877 3788.69 489.887 3780.99 498.1C3773.8 505.8 3764.56 509.65 3753.27 509.65H3558.46V559.7H3775.6C3786.89 559.7 3796.13 563.55 3803.32 571.25C3811.02 578.437 3814.87 587.677 3814.87 598.97V666.73C3814.87 678.023 3811.02 687.52 3803.32 695.22C3796.13 702.407 3786.89 706 3775.6 706H3404.46C3392.14 706 3382.64 702.663 3375.97 695.99C3369.29 689.317 3365.96 679.82 3365.96 667.5V205.5C3365.96 193.18 3369.29 183.683 3375.97 177.01C3382.64 170.337 3392.14 167 3404.46 167H3775.6C3786.89 167 3796.13 170.85 3803.32 178.55C3811.02 185.737 3814.87 194.977 3814.87 206.27V274.03C3814.87 285.323 3811.02 294.82 3803.32 302.52C3796.13 309.707 3786.89 313.3 3775.6 313.3H3558.46Z" fill="url(#paint10_radial_269_1461)"/>
<defs>
<radialGradient id="paint0_radial_269_1461" cx="0" cy="0" r="1" gradientUnits="userSpaceOnUse" gradientTransform="translate(1925.4 10.9998) rotate(90.2976) scale(770.011 4818.71)">
<stop offset="0.65" stop-color="#E3D2BA" stop-opacity="0"/>
<stop offset="0.651" stop-color="#E3D2BA"/>
</radialGradient>
<radialGradient id="paint1_radial_269_1461" cx="0" cy="0" r="1" gradientUnits="userSpaceOnUse" gradientTransform="translate(1925.4 10.9998) rotate(90.2976) scale(770.011 4818.71)">
<stop offset="0.65" stop-color="#E3D2BA" stop-opacity="0"/>
<stop offset="0.651" stop-color="#E3D2BA"/>
</radialGradient>
<radialGradient id="paint2_radial_269_1461" cx="0" cy="0" r="1" gradientUnits="userSpaceOnUse" gradientTransform="translate(1925.4 10.9998) rotate(90.2976) scale(770.011 4818.71)">
<stop offset="0.65" stop-color="#E3D2BA" stop-opacity="0"/>
<stop offset="0.651" stop-color="#E3D2BA"/>
</radialGradient>
<linearGradient id="paint3_linear_269_1461" x1="2026.2" y1="262.27" x2="2026.2" y2="799.27" gradientUnits="userSpaceOnUse">
<stop stop-color="#B16683"/>
<stop offset="1" stop-color="#8751C1"/>
</linearGradient>
<linearGradient id="paint4_linear_269_1461" x1="2061.44" y1="262.27" x2="2061.44" y2="799.27" gradientUnits="userSpaceOnUse">
<stop stop-color="#FFA6A6"/>
<stop offset="1" stop-color="#BE83FA"/>
</linearGradient>
<linearGradient id="paint5_linear_269_1461" x1="2312.79" y1="383.056" x2="1844.78" y2="837.437" gradientUnits="userSpaceOnUse">
<stop stop-color="#FFA6A6"/>
<stop offset="1" stop-color="#BE83FA"/>
</linearGradient>
<linearGradient id="paint6_linear_269_1461" x1="2121.79" y1="88" x2="2121.79" y2="816.249" gradientUnits="userSpaceOnUse">
<stop offset="0.00757076" stop-color="#110000"/>
<stop offset="1" stop-color="#110000" stop-opacity="0.3"/>
</linearGradient>
<linearGradient id="paint7_linear_269_1461" x1="2121.79" y1="88" x2="2121.79" y2="816.249" gradientUnits="userSpaceOnUse">
<stop offset="0.00757076" stop-color="#110000"/>
<stop offset="1" stop-color="#110000" stop-opacity="0.3"/>
</linearGradient>
<radialGradient id="paint8_radial_269_1461" cx="0" cy="0" r="1" gradientUnits="userSpaceOnUse" gradientTransform="translate(1954.14 12.9999) rotate(90) scale(770 4505.77)">
<stop offset="0.65" stop-color="#E3D2BA" stop-opacity="0"/>
<stop offset="0.651" stop-color="#E3D2BA"/>
</radialGradient>
<radialGradient id="paint9_radial_269_1461" cx="0" cy="0" r="1" gradientUnits="userSpaceOnUse" gradientTransform="translate(1954.14 12.9999) rotate(90) scale(770 4505.77)">
<stop offset="0.65" stop-color="#E3D2BA" stop-opacity="0"/>
<stop offset="0.651" stop-color="#E3D2BA"/>
</radialGradient>
<radialGradient id="paint10_radial_269_1461" cx="0" cy="0" r="1" gradientUnits="userSpaceOnUse" gradientTransform="translate(1954.14 12.9999) rotate(90) scale(770 4505.77)">
<stop offset="0.65" stop-color="#E3D2BA" stop-opacity="0"/>
<stop offset="0.651" stop-color="#E3D2BA"/>
</radialGradient>
</defs>
</svg>
